<svg id="Capa_1" enable-background="new 0 0 512 512" height="512" viewBox="0 0 512 512" width="512" xmlns="http://www.w3.org/2000/svg"><g><path d="m499.68 399.602c0-56.891-42.488-104.04-97.399-111.395v-273.207c0-8.284-6.716-15-15-15h-258.932c-3.979 0-7.794 1.581-10.607 4.394l-101.029 101.041c-2.812 2.813-4.393 6.628-4.393 10.606v380.959c0 8.284 6.716 15 15 15h359.961c61.977 0 112.399-50.422 112.399-112.398zm-386.331-348.385v49.812h-49.807zm-71.029 430.783v-350.971h86.029c8.284 0 15-6.716 15-15v-86.029h228.932v258.206c-54.91 7.356-97.399 54.504-97.399 111.395 0 32.522 13.889 61.856 36.041 82.398h-268.603zm344.961 0c-45.435 0-82.398-36.964-82.398-82.398 0-45.435 36.964-82.399 82.398-82.399 45.435 0 82.399 36.964 82.399 82.399 0 45.434-36.964 82.398-82.399 82.398z"/><path d="m426.943 384.602h-24.662v-24.662c0-8.284-6.716-15-15-15s-15 6.716-15 15v24.662h-24.661c-8.284 0-15 6.716-15 15s6.716 15 15 15h24.661v24.661c0 8.284 6.716 15 15 15s15-6.716 15-15v-24.661h24.662c8.284 0 15-6.716 15-15s-6.716-15-15-15z"/><path d="m93.716 191.029h221.986c8.284 0 15-6.716 15-15s-6.716-15-15-15h-221.986c-8.284 0-15 6.716-15 15s6.716 15 15 15z"/><path d="m93.716 251.029h221.986c8.284 0 15-6.716 15-15s-6.716-15-15-15h-221.986c-8.284 0-15 6.716-15 15s6.716 15 15 15z"/><path d="m230.882 281.029h-137.166c-8.284 0-15 6.716-15 15s6.716 15 15 15h137.166c8.284 0 15-6.716 15-15s-6.715-15-15-15z"/><path d="m230.882 341.029h-137.166c-8.284 0-15 6.716-15 15s6.716 15 15 15h137.166c8.284 0 15-6.716 15-15s-6.715-15-15-15z"/><path d="m230.882 401.029h-137.166c-8.284 0-15 6.716-15 15s6.716 15 15 15h137.166c8.284 0 15-6.716 15-15s-6.715-15-15-15z"/></g></svg>